<mxfile host="app.diagrams.net" modified="2023-05-06T07:20:05.735Z" agent="5.0 (Macintosh; Intel Mac OS X 10_15_7) AppleWebKit/537.36 (KHTML, like Gecko) Chrome/113.0.0.0 Safari/537.36" version="20.7.3" etag="EeSK3EiUqH6Gx7K-r5P6" type="github">
  <diagram id="Yi3TPHSkX7_m9sBK5TQP" name="Page-1">
    <mxGraphModel dx="1368" dy="824" grid="1" gridSize="10" guides="1" tooltips="1" connect="1" arrows="1" fold="1" page="1" pageScale="1" pageWidth="827" pageHeight="2430" math="0" shadow="0">
      <root>
        <mxCell id="0" />
        <mxCell id="1" parent="0" />
        <mxCell id="JaqatRZLeKQ_ParRDWZZ-1" value="&lt;font style=&quot;font-size: 20px;&quot;&gt;ESP32&lt;/font&gt;" style="rounded=1;whiteSpace=wrap;html=1;fillColor=#f0a30a;strokeColor=#BD7000;fontColor=#000000;" vertex="1" parent="1">
          <mxGeometry x="85" y="360" width="120" height="60" as="geometry" />
        </mxCell>
        <mxCell id="JaqatRZLeKQ_ParRDWZZ-2" value="lokale Einstellungsseite" style="rounded=1;whiteSpace=wrap;html=1;fontSize=20;fillColor=#dae8fc;gradientColor=#7ea6e0;strokeColor=#6c8ebf;" vertex="1" parent="1">
          <mxGeometry x="60" y="70" width="170" height="70" as="geometry" />
        </mxCell>
        <mxCell id="JaqatRZLeKQ_ParRDWZZ-4" value="&lt;font style=&quot;font-size: 20px;&quot;&gt;Hardware&lt;/font&gt;" style="rounded=1;whiteSpace=wrap;html=1;fillColor=#f0a30a;strokeColor=#BD7000;fontColor=#000000;" vertex="1" parent="1">
          <mxGeometry x="700" y="520" width="120" height="60" as="geometry" />
        </mxCell>
        <mxCell id="JaqatRZLeKQ_ParRDWZZ-5" value="Externe Registrierungsseite" style="rounded=1;whiteSpace=wrap;html=1;fontSize=20;fillColor=#dae8fc;gradientColor=#7ea6e0;strokeColor=#6c8ebf;" vertex="1" parent="1">
          <mxGeometry x="360" y="70" width="170" height="70" as="geometry" />
        </mxCell>
        <mxCell id="JaqatRZLeKQ_ParRDWZZ-6" value="Externe&lt;br&gt;Einstellungsseite" style="rounded=1;whiteSpace=wrap;html=1;fontSize=20;fillColor=#dae8fc;gradientColor=#7ea6e0;strokeColor=#6c8ebf;" vertex="1" parent="1">
          <mxGeometry x="570" y="70" width="170" height="70" as="geometry" />
        </mxCell>
        <mxCell id="JaqatRZLeKQ_ParRDWZZ-7" value="" style="rounded=0;whiteSpace=wrap;html=1;fontSize=20;fillColor=none;" vertex="1" parent="1">
          <mxGeometry x="344" y="50" width="410" height="110" as="geometry" />
        </mxCell>
        <mxCell id="JaqatRZLeKQ_ParRDWZZ-8" value="" style="endArrow=classic;html=1;rounded=0;fontSize=20;exitX=0.5;exitY=0;exitDx=0;exitDy=0;entryX=0.5;entryY=1;entryDx=0;entryDy=0;" edge="1" parent="1" source="JaqatRZLeKQ_ParRDWZZ-1" target="JaqatRZLeKQ_ParRDWZZ-2">
          <mxGeometry width="50" height="50" relative="1" as="geometry">
            <mxPoint x="390" y="330" as="sourcePoint" />
            <mxPoint x="440" y="280" as="targetPoint" />
          </mxGeometry>
        </mxCell>
        <mxCell id="JaqatRZLeKQ_ParRDWZZ-12" value="Hosting" style="edgeLabel;html=1;align=center;verticalAlign=middle;resizable=0;points=[];fontSize=20;rotation=-90;" vertex="1" connectable="0" parent="JaqatRZLeKQ_ParRDWZZ-8">
          <mxGeometry x="0.0818" y="-3" relative="1" as="geometry">
            <mxPoint x="-18" y="9" as="offset" />
          </mxGeometry>
        </mxCell>
        <mxCell id="JaqatRZLeKQ_ParRDWZZ-10" value="&lt;font style=&quot;font-size: 20px;&quot;&gt;Cloud&lt;/font&gt;" style="rounded=1;whiteSpace=wrap;html=1;fillColor=#f0a30a;strokeColor=#BD7000;fontColor=#000000;" vertex="1" parent="1">
          <mxGeometry x="500" y="360" width="120" height="60" as="geometry" />
        </mxCell>
        <mxCell id="JaqatRZLeKQ_ParRDWZZ-11" value="" style="endArrow=classic;html=1;rounded=0;fontSize=20;entryX=0.529;entryY=1.027;entryDx=0;entryDy=0;entryPerimeter=0;exitX=0.5;exitY=0;exitDx=0;exitDy=0;" edge="1" parent="1" source="JaqatRZLeKQ_ParRDWZZ-10" target="JaqatRZLeKQ_ParRDWZZ-7">
          <mxGeometry width="50" height="50" relative="1" as="geometry">
            <mxPoint x="390" y="330" as="sourcePoint" />
            <mxPoint x="440" y="280" as="targetPoint" />
          </mxGeometry>
        </mxCell>
        <mxCell id="JaqatRZLeKQ_ParRDWZZ-13" value="Hosting" style="text;html=1;align=center;verticalAlign=middle;resizable=0;points=[];autosize=1;strokeColor=none;fillColor=none;fontSize=20;rotation=-90;" vertex="1" parent="1">
          <mxGeometry x="500" y="230" width="90" height="40" as="geometry" />
        </mxCell>
        <mxCell id="JaqatRZLeKQ_ParRDWZZ-14" value="" style="endArrow=none;dashed=1;html=1;rounded=0;fontSize=20;exitX=1;exitY=0.5;exitDx=0;exitDy=0;entryX=0.5;entryY=1;entryDx=0;entryDy=0;" edge="1" parent="1" source="JaqatRZLeKQ_ParRDWZZ-1" target="JaqatRZLeKQ_ParRDWZZ-7">
          <mxGeometry width="50" height="50" relative="1" as="geometry">
            <mxPoint x="390" y="330" as="sourcePoint" />
            <mxPoint x="440" y="280" as="targetPoint" />
          </mxGeometry>
        </mxCell>
        <mxCell id="JaqatRZLeKQ_ParRDWZZ-15" value="Unique ID (MAC)" style="text;html=1;align=center;verticalAlign=middle;resizable=0;points=[];autosize=1;strokeColor=none;fillColor=none;fontSize=20;rotation=-30;" vertex="1" parent="1">
          <mxGeometry x="260" y="240" width="180" height="40" as="geometry" />
        </mxCell>
        <mxCell id="JaqatRZLeKQ_ParRDWZZ-17" value="Websites" style="rounded=1;whiteSpace=wrap;html=1;fontSize=20;fillColor=#dae8fc;gradientColor=#7ea6e0;strokeColor=#6c8ebf;" vertex="1" parent="1">
          <mxGeometry x="570" y="520" width="120" height="60" as="geometry" />
        </mxCell>
        <mxCell id="JaqatRZLeKQ_ParRDWZZ-23" value="" style="endArrow=classic;html=1;rounded=0;fontSize=20;exitX=1;exitY=0.5;exitDx=0;exitDy=0;entryX=0;entryY=0.5;entryDx=0;entryDy=0;" edge="1" parent="1" source="JaqatRZLeKQ_ParRDWZZ-1" target="JaqatRZLeKQ_ParRDWZZ-10">
          <mxGeometry width="50" height="50" relative="1" as="geometry">
            <mxPoint x="400" y="340" as="sourcePoint" />
            <mxPoint x="450" y="290" as="targetPoint" />
          </mxGeometry>
        </mxCell>
        <mxCell id="JaqatRZLeKQ_ParRDWZZ-24" value="Status Push and Task Pull" style="text;html=1;align=center;verticalAlign=middle;resizable=0;points=[];autosize=1;strokeColor=none;fillColor=none;fontSize=20;" vertex="1" parent="1">
          <mxGeometry x="227" y="384" width="260" height="40" as="geometry" />
        </mxCell>
        <mxCell id="JaqatRZLeKQ_ParRDWZZ-26" value="" style="rounded=1;whiteSpace=wrap;html=1;fontSize=20;" vertex="1" parent="1">
          <mxGeometry x="20" y="610" width="420" height="270" as="geometry" />
        </mxCell>
        <mxCell id="JaqatRZLeKQ_ParRDWZZ-27" value="Cloud" style="text;html=1;align=center;verticalAlign=middle;resizable=0;points=[];autosize=1;strokeColor=none;fillColor=none;fontSize=20;" vertex="1" parent="1">
          <mxGeometry x="24" y="615" width="80" height="40" as="geometry" />
        </mxCell>
        <mxCell id="JaqatRZLeKQ_ParRDWZZ-28" value="Frontend" style="rounded=1;whiteSpace=wrap;html=1;fontSize=20;fillColor=#dae8fc;gradientColor=#7ea6e0;strokeColor=#6c8ebf;" vertex="1" parent="1">
          <mxGeometry x="160" y="630" width="120" height="60" as="geometry" />
        </mxCell>
        <mxCell id="JaqatRZLeKQ_ParRDWZZ-29" value="RestAPI" style="rounded=1;whiteSpace=wrap;html=1;fontSize=20;fillColor=#dae8fc;gradientColor=#7ea6e0;strokeColor=#6c8ebf;" vertex="1" parent="1">
          <mxGeometry x="30" y="760" width="120" height="60" as="geometry" />
        </mxCell>
        <mxCell id="JaqatRZLeKQ_ParRDWZZ-30" value="Database" style="rounded=1;whiteSpace=wrap;html=1;fontSize=20;fillColor=#dae8fc;gradientColor=#7ea6e0;strokeColor=#6c8ebf;" vertex="1" parent="1">
          <mxGeometry x="310" y="760" width="120" height="60" as="geometry" />
        </mxCell>
        <mxCell id="JaqatRZLeKQ_ParRDWZZ-31" value="Frontend: Initial Registration and &lt;br&gt;&lt;span style=&quot;white-space: pre;&quot;&gt;	&lt;/span&gt;&lt;span style=&quot;white-space: pre;&quot;&gt;	&lt;/span&gt;Settings for ESP32" style="text;html=1;align=left;verticalAlign=middle;resizable=0;points=[];autosize=1;strokeColor=none;fillColor=none;fontSize=20;" vertex="1" parent="1">
          <mxGeometry x="460" y="630" width="310" height="60" as="geometry" />
        </mxCell>
        <mxCell id="JaqatRZLeKQ_ParRDWZZ-32" value="RestAPI: Handling initial registration&lt;br&gt;&lt;span style=&quot;white-space: pre;&quot;&gt;	&lt;/span&gt;&lt;span style=&quot;white-space: pre;&quot;&gt;	&lt;/span&gt;and receives Status of ESP" style="text;html=1;align=left;verticalAlign=middle;resizable=0;points=[];autosize=1;strokeColor=none;fillColor=none;fontSize=20;" vertex="1" parent="1">
          <mxGeometry x="460" y="710" width="360" height="60" as="geometry" />
        </mxCell>
        <mxCell id="JaqatRZLeKQ_ParRDWZZ-33" value="Messaging Service" style="rounded=1;whiteSpace=wrap;html=1;fontSize=20;fillColor=#dae8fc;gradientColor=#7ea6e0;strokeColor=#6c8ebf;" vertex="1" parent="1">
          <mxGeometry x="170" y="760" width="120" height="60" as="geometry" />
        </mxCell>
        <mxCell id="JaqatRZLeKQ_ParRDWZZ-34" value="Messaging: Stores settings changes&lt;br&gt;&lt;span style=&quot;white-space: pre;&quot;&gt;	&lt;/span&gt;&lt;span style=&quot;white-space: pre;&quot;&gt;	&lt;/span&gt;&amp;nbsp; &amp;nbsp; for ESP until they get pulled" style="text;html=1;align=left;verticalAlign=middle;resizable=0;points=[];autosize=1;strokeColor=none;fillColor=none;fontSize=20;" vertex="1" parent="1">
          <mxGeometry x="460" y="780" width="380" height="60" as="geometry" />
        </mxCell>
        <mxCell id="JaqatRZLeKQ_ParRDWZZ-35" value="Database: Stores connection between User&lt;br&gt;&lt;span style=&quot;white-space: pre;&quot;&gt;	&lt;/span&gt;&lt;span style=&quot;white-space: pre;&quot;&gt;	&lt;/span&gt;&amp;nbsp; and uuid of ESP32" style="text;html=1;align=left;verticalAlign=middle;resizable=0;points=[];autosize=1;strokeColor=none;fillColor=none;fontSize=20;" vertex="1" parent="1">
          <mxGeometry x="460" y="860" width="410" height="60" as="geometry" />
        </mxCell>
      </root>
    </mxGraphModel>
  </diagram>
</mxfile>
